  <svg
    width="400"
    height="400"
    viewBox="0 0 400 400"
    fill="none"
    xmlns="http://www.w3.org/2000/svg"
  >
    <mask
      id="mask0_4279_2037"
      style="mask-type:luminance"
      maskUnits="userSpaceOnUse"
      x="0"
      y="0"
      width="400"
      height="400"
    >
      <path d="M400 0H0V400H400V0Z" fill="white" />
    </mask>
    <g mask="url(#mask0_4279_2037)">
      <path
        d="M304.441 295H45.7814C39.8114 295 34.9814 290.16 34.9814 284.2V79.28C34.9814 73.31 39.8114 68.48 45.7814 68.48H304.441C310.401 68.48 315.231 73.31 315.231 79.28V284.2C315.231 290.16 310.401 295 304.441 295Z"
        fill="white"
      />
      <path
        d="M315.34 112.335H35.0918V70.7251H315.34V112.335Z"
        fill="#DBDBDB"
      />
      <path
        d="M304.547 293.38H45.8848C39.9238 293.38 35.0918 288.548 35.0918 282.587V77.6592C35.0918 71.6982 39.9238 66.8662 45.8848 66.8662H304.547C310.508 66.8662 315.34 71.6982 315.34 77.6592V282.587C315.34 288.548 310.508 293.38 304.547 293.38Z"
        stroke="#DBDBDB"
        stroke-width="10.793"
        stroke-miterlimit="10"
      />
      <path
        d="M236.782 94.6981H57.022C54.042 94.6981 51.627 92.2831 51.627 89.3031V88.2461C51.627 85.2661 54.042 82.8501 57.022 82.8501H236.782C239.762 82.8501 242.177 85.2661 242.177 88.2461V89.3031C242.177 92.2831 239.762 94.6981 236.782 94.6981Z"
        fill="white"
      />
      <path
        d="M272.076 88.7741C272.076 92.0461 269.423 94.6991 266.151 94.6991C262.879 94.6991 260.227 92.0461 260.227 88.7741C260.227 85.5021 262.879 82.8491 266.151 82.8491C269.423 82.8491 272.076 85.5021 272.076 88.7741Z"
        fill="white"
      />
      <path
        d="M293.365 88.7741C293.365 92.0461 290.712 94.6991 287.44 94.6991C284.168 94.6991 281.516 92.0461 281.516 88.7741C281.516 85.5021 284.168 82.8491 287.44 82.8491C290.712 82.8491 293.365 85.5021 293.365 88.7741Z"
        fill="white"
      />
      <path
        d="M209.729 249.43H140.701V231.172H209.729V249.43Z"
        fill="#DBDBDB"
      />
      <path
        d="M264.153 195.417H240.455V153.807H264.153V195.417Z"
        fill="#DBDBDB"
      />
      <path
        d="M109.975 195.417H86.2773V153.807H109.975V195.417Z"
        fill="#DBDBDB"
      />
      <path
        d="M307.265 351.092H242.645C234.777 351.092 229.859 342.574 233.793 335.76L266.103 279.796L298.413 223.834C302.347 217.02 312.183 217.02 316.117 223.834L348.427 279.796L380.737 335.76C384.671 342.574 379.753 351.092 371.885 351.092H307.265Z"
        fill="#2660B6"
      />
      <path
        d="M299.682 334.377C297.651 332.422 296.637 330.041 296.637 327.235C296.637 324.431 297.633 322.088 299.626 320.205C301.619 318.323 304.166 317.383 307.266 317.383C310.366 317.383 312.912 318.323 314.905 320.205C316.898 322.088 317.895 324.431 317.895 327.235C317.895 330.041 316.879 332.422 314.85 334.377C312.819 336.334 310.291 337.311 307.266 337.311C304.238 337.311 301.711 336.334 299.682 334.377ZM296.969 258.924H317.562L314.13 309.522H300.401L296.969 258.924Z"
        fill="white"
      />
    </g>
  </svg>